<svg xmlns="http://www.w3.org/2000/svg" xmlns:xlink="http://www.w3.org/1999/xlink" viewBox="0 0 512 512"><defs><linearGradient id="a" x1="116.6" y1="219.47" x2="491.04" y2="-34.69" gradientUnits="userSpaceOnUse"><stop offset="0" stop-color="#0b8cd2"/><stop offset="1" stop-color="#31b0e4"/></linearGradient><linearGradient id="b" x1="403.32" y1="510.43" x2="109.56" y2="251.83" gradientUnits="userSpaceOnUse"><stop offset="0" stop-color="#4588c4"/><stop offset="1" stop-color="#23588c"/></linearGradient></defs><path d="M309,128.3H472.1L512,0H300C189.9,0,93.1,67.1,63,164.4,43.9,225.9,23.2,290,17.7,307.9c-12.8,41,84.2-47.6,126.1-47.6,29.1,0,39.6-13.8,50.5-51.4C208.1,161.2,255.3,128.3,309,128.3Z" fill="url(#a)"/><path d="M220.7,408c-20.9,0-71.4-12.9-71.4-47.9,0-32.2,34.5-52.7,84-52.7,162.2,0,175.4,24.8,175.4,24.8l16.2-52c10.1-32.5-16.5-64.9-53.3-64.9H155.9c-43.5,0-114.9,14.9-139.2,96.3-12,40-32.2,105.7,3.2,146.4,33.9,39,84.3,54,119.3,54H352.8c82,0,124.7-69.1,159.2-137.5C512,374.5,330.2,408,220.7,408Z" fill="url(#b)"/></svg>